PathFileType	4	(X/Y/Z)	C:\Users\Basilio\Documents\Thesis Gigler\squatting_fais\c3dfiles\076\SJ_pre3\markers_experimental.trc
DataRate	CameraRate	NumFrames	NumMarkers	Units	OrigDataRate	OrigDataStartFrame	OrigNumFrames
200.000000	200.000000	4	61	mm	200.000000	341	1365
Frame#	Time	FHD			RBHD			C7			T10			CLAV			LSHO			LUUPA			LMUPA			LDUPA			LLEP			LMEP			LRAD			LUL			LRFIN			RSHO			RUPA1			RMUPA			RDUPA			RLEP			RMEP			RRAD			RUL			RUFIN			LASI			RASI			USACR			LSACR			RSACR			LTHI1			LTHI2			LTHI3			LTHI4			LLFC			LMFC			LTIB1			LTIB2			LTIB3			LTIB4			LLMAL			LMMAL			LHEE			LMT1			LMT2			LMT5			RTHI			RTHI2			RTHI3			RTHI4			RLFC			RMFC			RTIB1			RTIB2			RTIB3			RTIB4			RLMAL			RMMAL			RHEE			RMT1			RMT2			RMT5			LBHD			
		X1	Y1	Z1	X2	Y2	Z2	X3	Y3	Z3	X4	Y4	Z4	X5	Y5	Z5	X6	Y6	Z6	X7	Y7	Z7	X8	Y8	Z8	X9	Y9	Z9	X10	Y10	Z10	X11	Y11	Z11	X12	Y12	Z12	X13	Y13	Z13	X14	Y14	Z14	X15	Y15	Z15	X16	Y16	Z16	X17	Y17	Z17	X18	Y18	Z18	X19	Y19	Z19	X20	Y20	Z20	X21	Y21	Z21	X22	Y22	Z22	X23	Y23	Z23	X24	Y24	Z24	X25	Y25	Z25	X26	Y26	Z26	X27	Y27	Z27	X28	Y28	Z28	X29	Y29	Z29	X30	Y30	Z30	X31	Y31	Z31	X32	Y32	Z32	X33	Y33	Z33	X34	Y34	Z34	X35	Y35	Z35	X36	Y36	Z36	X37	Y37	Z37	X38	Y38	Z38	X39	Y39	Z39	X40	Y40	Z40	X41	Y41	Z41	X42	Y42	Z42	X43	Y43	Z43	X44	Y44	Z44	X45	Y45	Z45	X46	Y46	Z46	X47	Y47	Z47	X48	Y48	Z48	X49	Y49	Z49	X50	Y50	Z50	X51	Y51	Z51	X52	Y52	Z52	X53	Y53	Z53	X54	Y54	Z54	X55	Y55	Z55	X56	Y56	Z56	X57	Y57	Z57	X58	Y58	Z58	X59	Y59	Z59	X60	Y60	Z60	X61	Y61	Z61	

342	1.705	32.5987892150879	1231.1640625	-887.7146606445315	-105.280143737793	1191.632202148438	-836.1699829101565	-188.2942657470703	1127.55712890625	-917.3040771484377	-418.0188903808595	913.7010498046877	-937.478454589844	-127.0487136840821	987.3658447265627	-911.0979003906252	-138.844223022461	1040.475219726563	-1080.8291015625	-227.555404663086	947.3721313476565	-1227.507690429688	-248.0910339355469	905.6528320312502	-1218.169921875	-267.0586242675782	914.002624511719	-1274.499755859375	-308.1649169921876	890.4046630859377	-1308.992431640625	-377.5128173828126	940.7944946289065	-1286.167602539063	-446.898651123047	779.9900512695315	-1143.950317382813	-404.7152404785157	767.1514892578126	-1101.391479492188	-421.3445739746095	725.5978393554689	-1172.78515625	-169.9035949707032	1040.223999023438	-752.4851684570314	-289.0843811035157	969.017761230469	-613.4837036132814	-292.6576232910157	918.4295654296877	-614.4969482421876	-335.2079162597657	931.3308105468752	-573.4866943359376	-379.2726440429688	876.9438476562502	-553.0045776367189	-444.6913452148439	915.9730224609377	-600.9863281250001	-466.4939880371095	752.7864990234376	-741.6763916015626	-413.5181274414064	744.7835083007814	-761.9036865234376	-441.1050415039064	700.7944946289064	-705.4996948242189	-378.6985168457032	689.5554199218751	-1040.560791015625	nan	nan	nan	-492.0808105468751	832.893493652344	-940.3228759765627	-515.3641357421876	816.4796142578127	-970.354187011719	-520.2111816406251	813.4251098632815	-912.9836425781252	-426.3235473632814	633.2097167968751	-1141.416015625	-348.9631347656251	601.0401611328126	-1141.518310546875	-317.8728942871094	628.7694702148439	-1114.510986328125	-332.7292785644532	542.4149780273439	-1146.875732421875	-229.6242675781251	426.460662841797	-1132.743774414063	-221.0914459228516	421.8525390625001	-1023.189697265625	-233.2869873046876	286.4143676757813	-1059.231201171875	-265.6647644042969	239.1906280517579	-1127.032592773438	-243.7123107910157	234.6069793701172	-1086.586181640625	-293.4093627929688	174.1733551025391	-1056.609008789063	-380.9796752929688	77.96363067626955	-1121.500244140625	-364.4846496582032	87.45028686523439	-1035.162963867188	-446.1193237304689	43.16274642944337	-1078.263061523438	-236.2580871582032	53.77149581909181	-1050.8251953125	-229.4575958251954	54.1211624145508	-1089.331909179688	-245.8513488769532	42.9552345275879	-1140.808471679688	-378.7657775878907	560.6657104492189	-725.7723999023439	-311.4501953125001	550.4254150390626	-716.6301269531251	-288.7930603027344	574.7293090820314	-729.4584960937501	-275.6170043945313	473.8577575683595	-723.4381103515626	-239.3900299072266	434.6875305175782	-721.9536132812501	-217.8670806884766	432.8304748535157	-827.6067504882815	-214.3870544433594	299.1384582519532	-740.3634643554689	-308.0159912109376	246.2849578857422	-714.9069824218751	-266.1506958007813	229.9265747070313	-730.7176513671876	-271.6377563476563	185.2789001464844	-767.6511840820314	-374.9959411621094	77.19801330566408	-736.7001953125001	-355.6844482421876	89.28627014160158	-820.704772949219	-435.9420166015626	50.02809906005861	-784.0142211914065	-228.2929840087891	53.24378585815431	-800.293640136719	-225.2956085205079	56.42241287231447	-754.8151855468751	-251.8714904785157	34.65404891967774	-701.4462890625001	-116.3037261962891	1186.980346679688	-988.281921386719	
343	1.71	32.66048812866212	1229.58056640625	-887.8397216796877	-105.1165924072266	1189.929077148438	-836.4030761718752	-188.0482025146485	1125.929809570313	-917.1853027343752	-417.9654846191407	912.5811157226565	-937.3574829101565	-126.9696044921875	985.7178955078127	-911.2921142578127	-138.9488372802735	1038.844848632813	-1080.848999023438	-227.5466766357422	945.7480468750002	-1227.526245117188	-248.0280303955079	903.9175415039065	-1218.06494140625	-266.8325500488282	912.4102783203127	-1274.865356445313	-308.0368041992188	889.2414550781252	-1309.227783203125	-377.0908813476563	939.484313964844	-1286.33740234375	-446.5263671875001	778.9791259765627	-1144.15576171875	-404.8504638671876	766.2096557617189	-1101.335327148438	-421.6808166503907	724.5173950195314	-1172.774536132813	-169.7473907470703	1038.176879882813	-752.6838378906251	-288.5222778320313	967.3614501953127	-613.4143676757814	-292.2484741210938	916.6343994140627	-614.3876342773439	-334.6306152343751	929.6983032226565	-573.2298583984376	-378.8256225585938	875.3360595703127	-552.8139648437501	-444.1593627929689	914.3872680664065	-600.6021728515626	-466.7116088867189	751.5955810546876	-741.4190673828126	-413.443572998047	743.7577514648439	-761.6885375976564	-441.4261169433595	699.4731445312501	-705.5247192382814	-378.8833923339844	689.4429931640626	-1041.550170898438	nan	nan	nan	-492.2741699218751	831.9774169921877	-940.1114501953127	-515.8599853515626	815.4368896484377	-970.344177246094	-520.3739013671876	812.1680908203127	-912.907897949219	-426.8251342773439	632.6559448242189	-1141.372924804688	-349.3865966796876	600.7182006835939	-1141.454345703125	-318.3900451660157	628.3805541992189	-1114.234375	-332.9971313476563	542.1328125000001	-1146.907348632813	-229.3783416748047	426.3883056640626	-1132.833984375	-221.0435485839844	421.8028259277345	-1023.303588867188	-233.1804199218751	286.3786926269532	-1059.296264648438	-265.5793762207032	239.2131805419922	-1127.046508789063	-243.6807708740235	234.5328826904297	-1086.61865234375	-293.3723449707032	174.1401977539063	-1056.6484375	-380.9204101562501	77.94876098632814	-1121.449340820313	-364.4774475097657	87.4652557373047	-1035.1767578125	-446.1688842773439	43.15454864501954	-1078.193481445313	-236.2447204589844	53.78375625610353	-1050.824340820313	-229.454086303711	54.09941864013673	-1089.33251953125	-245.8136291503907	42.97044754028321	-1140.768798828125	-378.9124755859376	560.1930541992189	-725.7639160156251	-311.5362548828126	550.1080932617189	-716.6777343750001	-288.9521484375001	574.3937377929689	-729.5661010742189	-275.4430236816407	473.654510498047	-723.3369140625001	-239.1592254638672	434.5283813476564	-721.9229736328126	-217.7775878906251	432.6371154785157	-827.595153808594	-214.0986938476563	298.9624328613282	-740.4064941406251	-307.7819519042969	246.2819824218751	-714.8782348632814	-265.9845275878907	229.9009857177735	-730.7353515625001	-271.5241699218751	185.226791381836	-767.7401733398439	-374.9569091796876	77.17251586914064	-736.6900634765626	-355.5403137207032	89.22947692871095	-820.6517333984377	-435.9291076660157	50.0299415588379	-784.0122680664065	-228.223373413086	53.20618820190431	-800.268493652344	-225.3163452148438	56.42642211914064	-754.8277587890626	-251.8379516601563	34.64415359497071	-701.4797973632814	-115.8303451538086	1185.316162109375	-988.3903808593752	
344	1.715	32.80546188354493	1227.909545898438	-887.8660888671877	-104.8874893188477	1188.154907226563	-836.1336669921877	-187.7453918457032	1124.396728515625	-916.9897460937502	-418.097869873047	911.245300292969	-937.1793212890627	-126.8478164672852	984.1157836914065	-911.4158935546877	-138.70751953125	1037.311889648438	-1080.757690429688	-227.127182006836	944.2465820312502	-1227.421142578125	-248.0661621093751	902.6604614257815	-1218.26416015625	-267.3859863281251	911.060974121094	-1274.564819335938	-307.9733276367188	887.601989746094	-1309.037231445313	-377.3596496582032	938.288024902344	-1286.59033203125	-444.8043823242189	778.126647949219	-1144.74462890625	-405.1569213867189	765.3920898437501	-1101.421752929688	-422.3260192871095	723.3929443359376	-1172.661254882813	-169.263916015625	1036.416015625	-752.7059936523439	-287.9866943359376	965.7698364257815	-613.1586303710939	-291.6146240234376	914.8514404296877	-614.2038574218751	-334.0847167968751	928.2592773437502	-573.0615844726564	-378.2384033203126	874.0811157226565	-552.5858764648439	-443.7796936035157	913.2528076171877	-600.1972656250001	-466.5916137695314	750.6976928710939	-741.2552490234376	-413.6814575195314	742.7049560546876	-761.7006835937501	-441.4298095703126	698.5188598632814	-705.4127197265626	-378.8996887207032	688.4157104492189	-1041.2099609375	nan	nan	nan	-492.4522094726564	830.9028930664065	-939.9588012695315	-516.1679077148439	814.157165527344	-970.0950927734377	-520.6736450195314	810.937194824219	-912.7131958007815	-427.295867919922	632.1534423828126	-1141.417724609375	-349.8028564453126	600.2601928710939	-1141.46240234375	-318.9589233398438	628.1422729492189	-1114.252197265625	-333.2232360839844	541.9008178710939	-1146.892456054688	-229.3771514892579	426.3175659179689	-1132.890258789063	-220.9868469238282	421.7162170410157	-1023.454345703125	-233.086166381836	286.3478698730469	-1059.363647460938	-265.5703430175782	239.1266632080079	-1127.136962890625	-243.6272583007813	234.5159149169922	-1086.709106445313	-293.3490600585938	174.1433563232422	-1056.705200195313	-381.0227966308594	78.00598907470705	-1121.435668945313	-364.4790649414063	87.4480438232422	-1035.150756835938	-446.1680908203126	43.16825485229493	-1078.212280273438	-236.2427978515626	53.7886428833008	-1050.821044921875	-229.4904022216797	54.08653259277345	-1089.332153320313	-245.7587127685547	42.93009185791016	-1140.750244140625	-378.9637145996094	559.7659301757814	-725.7374267578126	-311.5398864746094	549.8593750000001	-716.6773071289064	-289.0837707519532	574.1141357421876	-729.6347045898439	-275.2879638671876	473.3680419921876	-723.3250732421876	-238.9018096923829	434.4278259277345	-721.9321289062501	-217.5722045898438	432.4667968750001	-827.688659667969	-213.9233093261719	298.8132934570313	-740.4520874023439	-307.6014709472657	246.2134704589844	-714.9357299804689	-265.8439636230469	229.8081512451172	-730.7651367187501	-271.4238281250001	185.179672241211	-767.7837524414064	-374.9059753417969	77.24444580078126	-736.6535034179689	-355.6828002929688	89.26745605468751	-820.6843261718752	-435.9329223632814	50.04636383056642	-784.0155029296877	-228.2815093994141	53.24988555908205	-800.3228759765627	-225.3150939941407	56.40957260131837	-754.8305053710939	-251.8053283691407	34.69704818725587	-701.4823608398439	-115.9807052612305	1183.901000976563	-987.9812622070315	
345	1.72	32.9109001159668	1226.369750976563	-887.8306884765627	-104.7723007202149	1186.657836914063	-836.261657714844	-187.5593872070313	1122.7607421875	-916.9558105468752	-418.083221435547	910.0139770507815	-936.9859619140627	-126.5710372924805	982.4525146484377	-911.4019165039065	-138.8015747070313	1035.732543945313	-1080.880493164063	-227.3888702392579	942.9511718750002	-1227.669677734375	-248.0771942138672	901.1898193359377	-1218.356323242188	-267.2495422363282	909.5908203125002	-1274.615844726563	-308.0158996582032	886.2286376953127	-1309.22265625	-377.1985778808594	937.0822753906252	-1286.243896484375	-445.3801269531251	777.2053222656252	-1144.793823242188	-405.6384582519532	764.3438110351564	-1101.304077148438	-422.9575500488282	722.3795166015626	-1172.690551757813	-168.7650451660157	1034.589721679688	-752.6752929687501	-287.3830261230469	964.1287231445315	-613.0465698242189	-291.2380981445313	913.4539794921877	-613.8742675781251	-333.5518493652344	926.688415527344	-572.8486938476564	-377.9631958007813	872.2965087890627	-552.3472900390626	-443.307342529297	911.9161376953127	-599.8622436523439	-466.8052673339845	749.8413696289064	-741.1399536132814	-413.771209716797	741.8317871093751	-761.7453002929689	-441.6406250000001	697.3267211914064	-705.4666748046876	-379.5675354003907	687.0862426757814	-1041.291748046875	nan	nan	nan	-492.6099548339845	829.8179321289065	-939.743103027344	-516.2923583984376	813.2803955078127	-970.0637817382815	-520.7037353515626	810.0635986328127	-912.622009277344	-427.8204650878907	631.5864257812501	-1141.329711914063	-350.1763916015626	599.9445190429689	-1141.356811523438	-319.4718627929688	627.7683715820314	-1114.077514648438	-332.7359313964844	541.4039916992189	-1146.624145507813	-229.4172668457032	426.2717895507814	-1133.087890625	-220.9161071777344	421.629364013672	-1023.552734375	-232.9998931884766	286.2917785644532	-1059.407104492188	-265.5226135253907	239.0463104248047	-1127.232421875	-243.5760192871094	234.4948883056641	-1086.755859375	-293.3088073730469	174.066390991211	-1056.705810546875	-380.9154663085938	77.96502685546876	-1121.4453125	-364.4752807617188	87.46640014648439	-1035.182495117188	-446.1884155273439	43.2100944519043	-1078.214233398438	-236.2525939941407	53.77449417114259	-1050.82080078125	-229.4500122070313	54.02749252319337	-1089.325805664063	-245.6995239257813	42.88283920288087	-1140.753295898438	-379.0269470214844	559.3343505859376	-725.6933593750001	-311.5603332519532	549.6103515625001	-716.6674804687501	-289.2073364257813	573.8421020507814	-729.7200927734376	-275.1551208496094	473.122772216797	-723.2866210937501	-238.6774597167969	434.2973937988282	-721.9850463867189	-217.5089416503907	432.2457580566407	-827.6944580078127	-213.7333984375001	298.6633911132813	-740.5255737304689	-307.5409545898438	246.2708740234376	-714.9105834960939	-265.7102661132813	229.7198333740235	-730.8103027343751	-271.3674011230469	185.0898895263672	-767.7821044921876	-374.9481201171876	77.18143463134767	-736.6610717773439	-355.5744628906251	89.24784088134767	-820.674499511719	-435.9475097656251	50.03328704833986	-784.0122680664065	-228.2350311279297	53.24068450927736	-800.2777099609377	-225.2900085449219	56.41395187377931	-754.8256835937501	-251.8199005126954	34.72685623168946	-701.4466552734376	-115.4388504028321	1182.305786132813	-988.2883300781252	
